<?xml version="1.0" encoding="UTF-8" standalone="no"?>
<!-- Created with Inkscape (http://www.inkscape.org/) -->

<svg
   width="137.85681mm"
   height="140.56223mm"
   viewBox="0 0 137.85681 140.56223"
   version="1.1"
   id="svg1"
   xml:space="preserve"
   inkscape:version="1.4.2 (f4327f4, 2025-05-13)"
   sodipodi:docname="lambanaljad_logo.svg"
   xmlns:inkscape="http://www.inkscape.org/namespaces/inkscape"
   xmlns:sodipodi="http://sodipodi.sourceforge.net/DTD/sodipodi-0.dtd"
   xmlns="http://www.w3.org/2000/svg"
   xmlns:svg="http://www.w3.org/2000/svg"><sodipodi:namedview
     id="namedview1"
     pagecolor="#ffffff"
     bordercolor="#000000"
     borderopacity="0.25"
     inkscape:showpageshadow="2"
     inkscape:pageopacity="0.0"
     inkscape:pagecheckerboard="0"
     inkscape:deskcolor="#d1d1d1"
     inkscape:document-units="mm"
     inkscape:zoom="0.71891835"
     inkscape:cx="257.33103"
     inkscape:cy="230.20695"
     inkscape:window-width="1920"
     inkscape:window-height="1009"
     inkscape:window-x="-8"
     inkscape:window-y="-8"
     inkscape:window-maximized="1"
     inkscape:current-layer="layer1" /><defs
     id="defs1"><rect
       x="151.61665"
       y="688.53436"
       width="393.64694"
       height="147.44373"
       id="rect2" /></defs><g
     inkscape:label="Kiht 1"
     inkscape:groupmode="layer"
     id="layer1"
     transform="translate(-36.672329,0.84688028)"><path
       style="fill:none;stroke:#000000;stroke-width:5.55005;stroke-dasharray:none"
       d="m 48.137546,80.715413 c -0.188422,-4.28953 -1.322181,-11.97803 0.359702,-15.77436 1.95349,-4.409369 9.1056,-11.071195 12.949301,-12.06272 1.59277,-0.410887 3.400118,-0.463942 5.035838,-0.463942 3.002301,0 4.602914,-0.652846 6.114943,3.247653 1.007455,2.59887 1.990229,5.216481 2.877624,7.887179 0.719254,2.16465 1.079105,3.87895 1.079105,6.03137 0,0.63764 0.01003,2.30667 0.359699,1.8558 0.169578,-0.21871 -0.09449,-0.64363 0,-0.92792 0.275408,-0.82883 0.781422,-1.50381 1.079107,-2.31975 0.6637,-1.81909 1.101441,-3.7692 1.798526,-5.56742 2.305212,-5.946646 6.409512,-8.309115 10.791082,-11.134826 1.64622,-1.061674 -1.52637,0.192291 1.07909,-0.927898 0.40867,-0.175695 1.00178,0 1.43882,0 1.19902,0 2.39801,0 3.59703,0 6.285397,0 6.809277,0.172856 7.553747,8.815053 0.099,1.148978 -0.28887,6.122731 0,6.495341 0.75833,0.97811 1.94292,-1.17767 2.87763,-1.85581 2.98869,-2.16839 5.88238,-4.179886 8.99257,-6.031364 0.73029,-0.434746 1.3779,-1.140229 2.15822,-1.391857 0.64766,-0.208846 1.65381,0.355519 2.1582,0.463958 1.43803,0.309106 0.0703,-0.814661 1.43882,1.391841 0.31778,0.512355 0.79694,0.845944 1.0791,1.391853 0.95441,1.846489 0.25572,4.980249 0,6.959279 -0.0394,0.3051 0.13307,0.67053 0,0.9279 -0.18811,0.36395 -1.02273,0.73228 -0.7194,0.92791 0.2145,0.1383 0.48201,-0.0437 0.7194,0 1.66669,0.30709 7.69942,0.65181 8.27317,1.39184 0.75673,0.97604 0.67246,6.67568 0.7194,7.88717 0.084,2.16792 0.28966,4.32658 0.3597,6.49532 0.0698,2.16324 0.40715,4.39486 0,6.49533 -0.58814,3.0344 -3.6494,0.63961 -4.67614,-0.46394 -0.20596,-0.22138 -0.14521,-0.72043 -0.35968,-0.92792 -0.66371,-0.64203 -1.7985,-1.06325 -1.7985,-0.92789 0,0.15461 0.30018,-0.13436 0.35968,0 0.45305,1.02259 0.75849,2.14485 1.0791,3.24765 1.32492,4.55709 2.61656,18.051057 0,22.269657 -0.0817,0.1322 -2.20057,0.12292 -2.51792,0 -0.93614,-0.36222 -3.48079,-2.43931 -4.31641,-3.24764 -0.38123,-0.36878 -1.22398,-1.94924 -1.79852,-2.31977 -0.21801,-0.14063 -0.92839,-0.26953 -1.07912,-0.46396 -0.74424,-0.95993 1.13729,0.0376 -0.35969,-0.92789 -0.7354,-0.47428 -0.31175,1.26812 -0.35972,1.39185 -1.17723,3.03682 -2.61473,5.89417 -3.95672,8.81506 -0.78564,1.71003 -1.30108,5.00805 -3.23732,4.17557 -3.78088,-1.62552 -7.66194,-3.93223 -10.791087,-6.95928 -0.92561,-0.89537 -1.91474,-2.62239 -2.51791,-3.71158 -0.22039,-0.39796 -0.0915,-1.04605 -0.35971,-1.39186 -0.0847,-0.10933 -0.24594,-0.0488 -0.35969,0 -1.77841,0.76461 -2.46313,3.8775 -3.23733,5.56741 -0.93108,2.03232 -1.96959,3.98175 -2.87762,6.03136 -0.0594,0.13437 0.0847,0.35461 0,0.46395 -0.30569,0.39429 -0.79443,0.50828 -1.07912,0.92791 -0.56935,0.83927 -0.8853,1.92698 -1.4388,2.78373 -0.30265,0.4684 -1.88883,-0.186 -2.15822,-0.46397 -1.99388,-2.05738 -4.643617,-7.33934 -5.75525,-10.20695 -0.748492,-1.93084 0.02481,0.49601 -0.719408,-0.46394 -0.08473,-0.10934 0.1199,-0.46395 0,-0.46395 -0.169558,0 -0.224045,0.33275 -0.359699,0.46395 -0.825134,0.79824 -1.851672,1.30421 -2.517919,2.31976 -0.692722,1.05594 -0.959204,2.47441 -1.438809,3.7116 -0.119899,0.30931 -0.136625,0.73609 -0.359702,0.92791 -0.199526,0.17159 -0.479604,0 -0.719406,0 -3.562536,0 -5.479042,-2.23689 -8.27316,-4.63951 -0.223078,-0.19181 -0.570688,-0.17622 -0.719407,-0.46395 -0.358161,-0.69297 -0.430646,-1.57486 -0.719405,-2.31976 -0.45692,-1.17869 -0.429908,0.47514 -0.719405,-1.39185 -0.13959,-0.90024 0.333089,-2.85235 0,-3.71161 -0.228872,-0.5904 -2.84562,3.22702 -3.597028,3.71161 -1.536386,0.99084 -8.545826,-1.31701 -9.711974,-2.31974 -0.594829,-0.51148 -0.670567,-2.80674 -0.719405,-3.24767 -0.132259,-1.19413 -0.232346,-4.80376 0,-5.10347 0.08479,-0.10932 0.274921,0.10921 0.359702,0 0.09733,-0.12547 0.978786,-1.596987 1.07911,-1.855797 0.248078,-0.63996 -0.435619,-0.415 0.359704,-0.9279 0.308164,-0.19875 1.798512,-0.99307 1.798512,-1.85581 0,-0.0408 -3.512522,-0.32072 -3.956731,-0.46395 -0.796958,-0.25699 -3.421896,-0.58299 -3.956728,-0.92792 -0.239803,-0.1546 -0.119901,-0.77326 -0.359705,-0.92788 -0.214485,-0.13832 -0.549838,0.2187 -0.719403,0 -0.08478,-0.10934 0.05363,-0.32564 0,-0.46396 -0.294084,-0.75863 -1.100457,-0.66448 -1.438812,-1.39188 -0.27588,-0.59304 -0.397678,-1.30249 -0.719407,-1.85578 -0.07193,-0.12386 -0.274921,0.1092 -0.359703,0 -0.268105,-0.34582 -0.09159,-1.04607 -0.3597,-1.39186 -0.08478,-0.10934 -0.274922,0.10935 -0.359704,0 -0.489363,-0.63118 1.032373,-1.79555 1.079107,-1.85579 0.379161,-0.48906 0.384437,-1.31573 0.719407,-1.85582 0.317778,-0.51235 0.783434,-0.85793 1.079108,-1.39186 0.311666,-0.56277 0.520261,-1.21363 0.719404,-1.85578 0.04452,-0.14364 -0.08477,-0.3546 0,-0.46398 0.339318,-0.43764 2.087048,0.18527 2.517919,0 0.866279,-0.37242 1.678617,-0.92789 2.51792,-1.39184 z"
       id="path1" /><text
       xml:space="preserve"
       transform="matrix(0.26458333,0,0,0.26458333,-19.845417,-38.806777)"
       id="text2"
       style="font-size:192px;text-align:start;writing-mode:lr-tb;direction:ltr;white-space:pre;shape-inside:url(#rect2);fill:#280b0b;stroke:#1a1a1a;stroke-width:0;stroke-dasharray:none" /><path
       d="m 67.5693,77.83574 -0.119694,3.992971 q 0,0.634698 -0.06384,1.863923 -0.0798,0.803415 -0.782002,0.803415 -0.782003,0 -0.782003,-0.819483 0,-0.972133 0.08778,-2.916396 0.08778,-1.952299 0.08778,-2.92443 0,-1.269397 0.03989,-2.900328 0.03989,-1.638967 0.03989,-2.908363 0,-0.803415 0.782003,-0.803415 0.789982,0 0.789982,0.803415 0,1.269396 -0.03989,2.908363 -0.0399,1.630931 -0.0399,2.900328 z m 8.681823,6.845094 q -0.151613,0 -0.550594,-0.353503 -0.359082,-0.329399 -0.534634,-0.586492 -0.766043,0.417776 -1.348555,0.626664 -0.582512,0.216921 -0.973513,0.216921 -1.867231,0 -2.721049,-1.060507 -0.805942,-0.996235 -0.805942,-3.052977 0,-1.944263 1.324616,-3.326137 1.332597,-1.381874 3.175888,-1.381874 0.694227,0 1.556025,0.361537 1.085228,0.449912 1.085228,1.084609 0,0.216923 -0.159593,0.38564 -0.0798,0.305297 -0.127673,1.004268 -0.03989,0.698972 -0.04788,1.791616 -0.008,0.996234 0.135653,1.574692 0.0798,0.353503 0.502717,1.414012 0.05586,0.144614 0.18353,0.425809 l 0.04788,0.13658 q 0,0.321367 -0.223429,0.530254 -0.223429,0.208888 -0.518675,0.208888 z m -1.659761,-5.583733 q 0,-0.345469 0.03989,-0.747176 0.04788,-0.409741 0.135655,-0.867688 -0.295246,-0.152649 -0.510696,-0.224957 -0.207471,-0.07231 -0.335144,-0.07231 -1.236841,0 -2.138537,1.020337 -0.893717,1.012302 -0.893717,2.337937 0,1.317601 0.462818,1.976401 0.462817,0.658801 1.388453,0.658801 0.766043,0 1.300678,-0.281196 0.287266,-0.152648 0.80594,-0.610595 -0.255348,-2.12905 -0.255348,-3.189557 z m 13.92443,5.720314 q -0.654328,0 -0.766043,-0.698971 -0.143633,-0.883756 -0.287266,-2.490587 l -0.271306,-2.490586 q -0.0798,-0.554356 -0.271308,-1.08461 -0.271306,-0.723073 -0.590491,-0.723073 -0.295246,0 -1.101187,0.506152 -0.766043,0.46598 -1.005431,0.747175 -0.008,0.75521 0.03989,1.510421 l 0.239388,2.145117 q 0.151613,1.269396 0.151613,2.096913 0,0.353503 -0.22343,0.578458 -0.215449,0.232991 -0.558573,0.232991 -0.343123,0 -0.566553,-0.232991 -0.215449,-0.224955 -0.215449,-0.578458 0,-0.972132 -0.19949,-2.868191 -0.191511,-1.904094 -0.191511,-2.876226 0,-0.851619 -0.239389,-1.325635 -0.558573,0.257093 -1.133105,0.835552 l -0.941595,1.060508 q -0.127674,0.19282 -0.40696,0.506151 0,0.482049 -0.08778,1.422044 -0.08777,0.939996 -0.08777,1.389909 0,0.241024 0.07182,0.674868 0.0798,0.433844 0.0798,0.626663 0,0.329401 -0.247369,0.554357 -0.239388,0.224957 -0.566552,0.224957 -0.901697,0 -0.901697,-2.064777 0,-0.482049 0.08778,-1.438113 0.08778,-0.956064 0.08778,-1.438113 0,-0.425809 -0.0798,-1.27743 -0.07181,-0.851619 -0.07181,-1.285463 0,-1.823752 0.813921,-1.823752 0.311205,0 0.566552,0.273161 0.263328,0.273162 0.263328,0.594527 0,0.152649 -0.03989,0.474015 -0.03989,0.321366 -0.03989,0.490083 l 0.01596,0.843585 q 0.41494,-0.859653 1.220881,-1.55059 0.805942,-0.698971 1.372494,-0.698971 1.252799,0 1.723597,1.253327 0.438879,-0.586493 1.04533,-0.875722 0.606451,-0.297264 1.388453,-0.297264 1.332597,0 1.819353,1.446147 0.09575,0.28923 0.327164,2.257596 0.223429,1.381874 0.574532,4.603568 0.02394,0.321366 -0.21545,0.546322 -0.239388,0.224956 -0.582512,0.224956 z m 6.287938,-0.3294 q -1.220881,0 -2.218333,-0.482049 -0.255348,0.385639 -0.62241,0.385639 -0.303225,0 -0.518675,-0.216922 -0.207471,-0.208888 -0.207471,-0.530254 0,-0.208887 0.01596,-0.618629 0.02394,-0.409742 0.02394,-0.61863 0,-0.851619 -0.04788,-2.546826 -0.0399,-1.703239 -0.0399,-2.554859 0,-0.586493 0.008,-2.217424 0.008,-1.638967 0.008,-2.233494 0,-0.482049 0.199491,-0.867688 0.263327,-0.490083 0.726145,-0.490083 0.598471,0 0.598471,0.698971 0,0.112477 -0.03989,0.3294 -0.0399,0.216921 -0.0399,0.3294 l -0.02394,1.759478 -0.01596,2.048709 q 0.694227,-0.474016 1.316637,-0.707006 0.63039,-0.241024 1.180984,-0.241024 1.715617,0 2.784886,1.325635 1.005431,1.245292 1.005431,3.06101 0,1.831786 -1.173004,3.109216 -1.173003,1.27743 -2.920539,1.27743 z m 0.303226,-7.254837 q -0.654329,0 -1.340576,0.369571 -0.335144,0.184786 -1.149065,0.795381 l -0.01596,1.389908 0.008,1.253326 0.008,1.317601 q 0.383022,0.176752 1.077249,0.449912 0.494736,0.152649 1.109166,0.152649 1.157045,0 1.899149,-0.819483 0.742104,-0.819483 0.742104,-2.040674 0,-1.197088 -0.598471,-2.000503 -0.646349,-0.867688 -1.739556,-0.867688 z m 11.897614,7.447656 q -0.15162,0 -0.5506,-0.353503 -0.35908,-0.329399 -0.53463,-0.586492 -0.76605,0.417776 -1.34856,0.626664 -0.58252,0.216921 -0.97351,0.216921 -1.86723,0 -2.72105,-1.060507 -0.80594,-0.996235 -0.80594,-3.052977 0,-1.944263 1.32461,-3.326137 1.3326,-1.381874 3.17589,-1.381874 0.69423,0 1.55603,0.361537 1.08523,0.449912 1.08523,1.084609 0,0.216923 -0.1596,0.38564 -0.0798,0.305297 -0.12767,1.004268 -0.0399,0.698972 -0.0478,1.791616 -0.008,0.996234 0.13565,1.574692 0.0798,0.353503 0.50272,1.414012 0.0558,0.144614 0.18353,0.425809 l 0.0478,0.13658 q 0,0.321367 -0.22342,0.530254 -0.22343,0.208888 -0.51867,0.208888 z m -1.65976,-5.583733 q 0,-0.345469 0.0399,-0.747176 0.0478,-0.409741 0.13566,-0.867688 -0.29525,-0.152649 -0.5107,-0.224957 -0.20747,-0.07231 -0.33515,-0.07231 -1.23684,0 -2.13853,1.020337 -0.89372,1.012302 -0.89372,2.337937 0,1.317601 0.46282,1.976401 0.46282,0.658801 1.38845,0.658801 0.76605,0 1.30068,-0.281196 0.28727,-0.152648 0.80594,-0.610595 -0.25534,-2.12905 -0.25534,-3.189557 z"
       id="path2"
       style="font-size:16.398px;font-family:'Comic Sans MS';-inkscape-font-specification:'Comic Sans MS';stroke:#000000;stroke-width:0" /><path
       d="m 71.662843,105.28842 q -0.686247,0 -0.774022,-0.75521 l -0.223429,-1.75947 q -0.111715,-0.94 -0.111715,-1.75948 0,-0.22496 0.02394,-0.76325 0.03192,-0.538285 0.03192,-0.763242 0,-1.735377 -0.638369,-1.735377 -0.893717,0 -1.707638,1.068543 -0.734125,0.972132 -1.149064,2.458446 -0.01596,0.31333 -0.07182,0.78735 -0.04788,0.40171 -0.04788,0.77932 0,0.24102 0.04788,0.72306 0.04788,0.48205 0.04788,0.72308 0,0.36153 -0.223428,0.5865 -0.215451,0.22495 -0.558574,0.22495 -0.351103,0 -0.566552,-0.22495 -0.215451,-0.22497 -0.215451,-0.5865 0,-0.24103 -0.05586,-0.72308 -0.04788,-0.48204 -0.04788,-0.72306 0,-0.82753 0.111715,-2.28974 0.119695,-1.47025 0.119695,-2.297767 0,-0.257093 -0.03192,-0.763244 -0.02394,-0.506151 -0.02394,-0.763244 0,-0.345469 0.223428,-0.56239 0.231409,-0.224957 0.566554,-0.224957 0.734124,0 0.80594,1.04444 l 0.02394,0.939995 q 1.340575,-1.799649 2.752967,-1.799649 1.276739,0 1.779455,1.132814 0.343123,0.755211 0.375041,2.233494 v 0.811448 l -0.008,0.74717 q 0,0.66684 0.167572,1.72735 0.175551,1.05248 0.175551,1.71127 0,0.35351 -0.231408,0.57042 -0.22343,0.22496 -0.566554,0.22496 z m 8.665863,-0.0401 q -0.151613,0 -0.550593,-0.3535 -0.359083,-0.3294 -0.534634,-0.58649 -0.766044,0.41778 -1.348556,0.62666 -0.582512,0.21692 -0.973513,0.21692 -1.867229,0 -2.721049,-1.0605 -0.805941,-0.99624 -0.805941,-3.05298 0,-1.944265 1.324616,-3.326139 1.332596,-1.381874 3.175887,-1.381874 0.694227,0 1.556025,0.361537 1.085228,0.449913 1.085228,1.08461 0,0.216923 -0.159592,0.385639 -0.0798,0.305298 -0.127674,1.00427 -0.03989,0.69897 -0.04788,1.791617 -0.008,0.99623 0.135653,1.57469 0.0798,0.3535 0.502716,1.41401 0.05586,0.14462 0.183531,0.42582 l 0.04788,0.13657 q 0,0.32137 -0.223429,0.53025 -0.22343,0.20889 -0.518675,0.20889 z m -1.65976,-5.583731 q 0,-0.345468 0.0399,-0.747175 0.04788,-0.409742 0.135653,-0.867689 -0.295246,-0.152648 -0.510696,-0.224956 -0.207469,-0.07231 -0.335144,-0.07231 -1.236839,0 -2.138537,1.020338 -0.893717,1.012303 -0.893717,2.337943 0,1.3176 0.462818,1.9764 0.462818,0.65879 1.388453,0.65879 0.766044,0 1.300678,-0.28119 0.287266,-0.15265 0.805941,-0.6106 -0.255348,-2.12904 -0.255348,-3.189553 z m 5.81714,-1.261361 -0.119693,3.992972 q 0,0.63469 -0.06383,1.86392 -0.0798,0.80341 -0.782003,0.80341 -0.782002,0 -0.782002,-0.81947 0,-0.97214 0.08778,-2.91641 0.08778,-1.95229 0.08778,-2.924422 0,-1.269396 0.03989,-2.900328 0.03989,-1.638966 0.03989,-2.908361 0,-0.803416 0.782002,-0.803416 0.789982,0 0.789982,0.803416 0,1.269395 -0.03989,2.908361 -0.0399,1.630932 -0.0399,2.900328 z m 5.067057,-3.848357 q -0.383022,0 -0.662309,-0.273162 -0.271307,-0.27316 -0.271307,-0.650766 0,-0.385639 0.271307,-0.6588 0.279287,-0.273161 0.662309,-0.273161 0.383021,0 0.662307,0.273161 0.279288,0.273161 0.279288,0.6588 0,0.377606 -0.279288,0.650766 -0.279286,0.273162 -0.662307,0.273162 z M 89.489313,106.582 q 0.008,-0.94 -0.271306,-4.81246 l -0.271308,-4.42682 q 0,-0.401707 0.22343,-0.715039 0.231409,-0.313332 0.582512,-0.313332 0.271307,0 0.542614,0.200854 0.271307,0.200854 0.287266,0.409741 l 0.263327,4.627676 0.21545,4.94903 q 0,1.11675 -0.662308,2.02461 -0.718166,0.9882 -1.747536,0.9882 -1.715617,0 -2.872662,-2.65931 -0.09575,-0.21692 -0.09575,-0.38564 0,-0.32136 0.247369,-0.55435 0.255348,-0.23299 0.574532,-0.23299 0.470798,0 0.981493,1.04444 0.127674,0.27316 0.446858,0.78734 0.311206,0.40171 0.718166,0.40171 0.351103,0 0.598471,-0.53025 0.191511,-0.40171 0.239388,-0.80341 z m 10.269771,-1.33368 q -0.151617,0 -0.550598,-0.3535 -0.359082,-0.3294 -0.534634,-0.58649 -0.766043,0.41778 -1.348555,0.62666 -0.582512,0.21692 -0.973513,0.21692 -1.86723,0 -2.721049,-1.0605 -0.805942,-0.99624 -0.805942,-3.05298 0,-1.944265 1.324617,-3.326139 1.332596,-1.381874 3.175887,-1.381874 0.694227,0 1.556025,0.361537 1.085234,0.449913 1.085234,1.08461 0,0.216923 -0.159595,0.385639 -0.07983,0.305298 -0.127675,1.00427 -0.0399,0.69897 -0.04789,1.791617 -0.008,0.99623 0.135652,1.57469 0.07983,0.3535 0.502712,1.41401 0.0558,0.14462 0.18354,0.42582 l 0.0478,0.13657 q 0,0.32137 -0.22342,0.53025 -0.22344,0.20889 -0.518685,0.20889 z M 98.09932,99.664589 q 0,-0.345468 0.03989,-0.747175 0.04788,-0.409742 0.135654,-0.867689 -0.295246,-0.152648 -0.510696,-0.224956 -0.20747,-0.07231 -0.335144,-0.07231 -1.23684,0 -2.138537,1.020338 -0.893717,1.012303 -0.893717,2.337943 0,1.3176 0.462818,1.9764 0.462818,0.65879 1.388453,0.65879 0.766044,0 1.300678,-0.28119 0.287266,-0.15265 0.805941,-0.6106 -0.255348,-2.12904 -0.255348,-3.189553 z m 11.13954,-2.040674 q -0.0958,1.18102 -0.0958,2.36204 0,2.675375 0.24737,4.041175 0.0159,0.11248 0.0159,0.18479 0,0.32136 -0.22343,0.53025 -0.22342,0.20889 -0.51867,0.20889 -0.49473,0 -0.72614,-0.72308 -0.57454,0.42581 -1.19695,0.64274 -0.61442,0.21692 -1.28471,0.21692 -1.65178,0 -2.73701,-1.10871 -1.11715,-1.13281 -1.11715,-2.90836 0,-2.145122 1.12513,-3.43862 1.1331,-1.293499 2.9365,-1.293499 0.92563,0 1.42835,0.28923 l 0.75008,0.554356 q 0.11172,-3.382377 0.26333,-4.555362 0.10374,-0.71504 0.72614,-0.71504 0.72614,0 0.72614,0.779313 0,1.116747 -0.31918,4.932967 z m -3.54294,0.208889 q -1.34058,0 -2.01087,0.803414 -0.67028,0.795381 -0.67028,2.402212 0,1.0364 0.72614,1.78358 0.73412,0.74717 1.71562,0.74717 0.67029,0 1.1331,-0.24905 0.27131,-0.14461 0.88574,-0.66684 0.11969,-0.10444 0.23141,-0.24906 l -0.0239,-1.3899 0.008,-0.93196 0.0159,-0.948035 q -0.30323,-0.650765 -0.80594,-0.972132 -0.50272,-0.329399 -1.20492,-0.329399 z"
       id="path3"
       style="font-size:16.398px;font-family:'Comic Sans MS';-inkscape-font-specification:'Comic Sans MS';stroke:#000000;stroke-width:0" /><path
       style="fill:none;stroke:#000000;stroke-width:4.99999;stroke-dasharray:none"
       d="m 122.24361,58.001133 c 0.69396,-0.17349 2.25538,0.173493 2.08189,-0.520472 -0.17349,-0.693962 -2.5877,1.026282 -2.08189,0.520472 1.32695,-1.326948 3.23185,-1.934506 4.68425,-3.122834 1.30538,-1.068033 1.48881,-3.050223 2.60237,-4.163783 0.12268,-0.122676 0.3653,0.07759 0.52047,0 0.73472,-0.367358 0.77252,-1.024564 1.04095,-1.561417 0.39857,-0.797144 0.92749,-0.407016 1.56141,-1.040945 0.54863,-0.548627 0.49232,-1.533263 1.04095,-2.08189 0.12268,-0.122676 0.39779,0.122677 0.52047,0 0.12268,-0.122676 -0.0776,-0.365299 0,-0.520472 0.62734,-1.254681 2.33312,-1.938256 3.12284,-3.122837 0.31696,-0.475446 0.44426,-1.263079 1.04094,-1.561418 0.15518,-0.07759 0.3978,0.122677 0.52048,0 1.1719,-1.1719 1.93579,-2.976745 3.12283,-4.163782"
       id="path5" /><path
       style="fill:none;stroke:#000000;stroke-width:4.99999;stroke-dasharray:none"
       d="m 141.5011,36.661755 c 2.03928,2.775836 3.604,5.705546 6.76614,7.286617 0.31035,0.155175 0.7956,-0.245351 1.04095,0 0.12267,0.122677 -0.12268,0.397798 0,0.520475 0.22714,0.22714 2.62035,1.310172 3.12284,1.561417 0.77453,0.387266 3.05164,0.449281 3.6433,1.040945 0.12268,0.122677 -0.12267,0.397796 0,0.520473 0.34301,0.343008 2.64368,0.999627 3.12284,0.520472 0.5694,-0.569396 0.48949,-2.571382 1.04094,-3.122835 0.17349,-0.173492 1.38793,-0.346982 1.56142,-0.520472 0.27432,-0.274315 0.24616,-0.766633 0.52047,-1.040948 0.53234,-0.532333 3.81518,-0.692343 5.20473,-2.081889 1.11354,-1.113542 0.52047,-3.70559 0.52047,-5.204727 0,-2.251935 0.58439,-8.135824 0,-9.88898 -0.4918,-1.47542 -1.75386,-1.329616 -2.60236,-2.602362 -0.40721,-0.610814 -0.22271,-2.006833 -0.52047,-2.602365 -0.21945,-0.438901 -0.78848,-0.620167 -1.04095,-1.040945 -0.36803,-0.613383 -0.0147,-1.57608 -0.52047,-2.08189 -0.12268,-0.122676 -0.37612,0.09624 -0.52047,0 -2.06898,-1.379315 -2.3728,-2.872822 -4.68426,-3.643309 -0.32917,-0.109726 -0.73059,0.155175 -1.04094,0 -0.15518,-0.07759 0,-0.34698 0,-0.520473 -0.17349,-0.17349 -0.28771,-0.442883 -0.52048,-0.520472 -0.32917,-0.109726 -0.71176,0.109725 -1.04094,0 -0.23276,-0.07759 -0.30102,-0.410747 -0.52047,-0.520473 -1.02018,-0.510085 -5.64731,-0.893416 -6.76615,-0.520472 -1.25681,0.418936 -4.39218,4.785341 -4.68425,6.245672 -0.17012,0.850609 0.32217,1.796952 0,2.602362 -0.52564,1.314098 -1.44806,2.375641 -2.08189,3.64331 -0.23276,0.465524 0.12623,1.056484 0,1.561417 -1.29955,5.198208 -2.32975,4.973368 0,10.409452 z"
       id="path7" /><path
       style="fill:none;stroke:#000000;stroke-width:4.99999;stroke-dasharray:none"
       d="m 147.2263,35.100338 c 3.84234,1.920573 6.53499,3.498648 10.40945,1.561417 0.15518,-0.07759 0.3978,0.122677 0.52047,0 0.27432,-0.274312 0.24616,-0.76663 0.52048,-1.040945 0.12267,-0.122677 0.36529,0.07759 0.52047,0 1.74747,-0.873736 2.60236,-1.158372 2.60236,-3.122835"
       id="path10" /><ellipse
       style="fill:none;stroke:#000000;stroke-width:4.99999;stroke-dasharray:none"
       id="path14"
       cx="157.63576"
       cy="23.910177"
       rx="1.5614179"
       ry="1.3011817" /><path
       style="fill:none;stroke:#000000;stroke-width:4.99999;stroke-dasharray:none"
       d="m 143.06252,25.731831 c -0.86746,-1.561418 -1.73491,-3.122835 -2.60237,-4.684255 0,-0.17349 0.0776,-0.365297 0,-0.520472 -0.34698,-0.693963 -0.61056,-1.436323 -1.04094,-2.08189 -0.40829,-0.612439 -1.32866,-0.863132 -1.56142,-1.561417 -0.10972,-0.329177 0.0842,-0.704324 0,-1.040945 -0.37066,-1.482643 -1.21401,-2.947231 -1.56142,-4.684255 -0.17012,-0.850609 0.17013,-1.751753 0,-2.602362 -0.15855,-0.792753 -0.99288,-1.657536 -0.52047,-2.602365 0.32917,-0.658352 1.04095,-1.040945 1.56142,-1.561418 0.53579,-0.535791 0.50515,-1.025625 1.04094,-1.561417 0.24536,-0.245353 0.71177,0.109725 1.04095,0 0.82624,-0.275415 2.2099,-1.497412 3.12284,-1.040945 1.27028,0.63514 2.4954,1.867974 3.12283,3.122835 0.33423,0.668456 0.18624,1.933906 0.52047,2.602362 0.35371,0.707409 1.20772,1.374484 1.56142,2.081893 0.15518,0.310348 -0.24535,0.795591 0,1.040944 0.12268,0.122677 0.34698,0 0.52047,0"
       id="path15" /><path
       style="fill:none;stroke:#000000;stroke-width:4.99999;stroke-dasharray:none"
       d="m 158.6767,10.638124 c 4.63121,-5.403082 1.14577,-2.2905 6.24567,-5.204727 0.21302,-0.121729 0.28771,-0.442886 0.52047,-0.520472 0.71536,-0.238453 3.62801,-1.071552 4.16378,0 0.24535,0.490707 0.1913,1.122516 0.52047,1.561417 1.66552,2.220685 0.58987,-1.353227 1.56142,1.561418 0.58923,1.767686 0,4.303717 0,6.245672 0,0.520472 0.36803,1.193389 0,1.56142 -0.12267,0.122676 -0.39779,-0.122677 -0.52047,0 -2.03127,2.031264 0.12048,0.279519 -0.52047,1.561417 -0.39476,0.789517 -2.06838,2.602362 -2.60237,2.602362"
       id="path16" /><path
       style="fill:none;stroke:#000000;stroke-width:4.99999;stroke-dasharray:none"
       d="m 109.2318,119.93738 c 0.67067,2.21424 1.12587,3.29269 2.08189,5.20472 0.41819,0.8364 -0.29939,2.22469 0,3.12284 0.24535,0.73606 0.85276,1.32918 1.04094,2.08189 0.0842,0.33662 -0.15517,0.73059 0,1.04095 0.0776,0.15517 0.46561,-0.16459 0.52047,0 0.64528,1.93582 0,5.24657 0,7.28661"
       id="path17" /><path
       style="fill:none;stroke:#000000;stroke-width:4.99999;stroke-dasharray:none"
       d="m 87.892423,127.22399 c 2.67039,6.64675 2.60236,6.92645 2.60236,12.49135"
       id="path18" /><path
       style="fill:none;stroke:#000000;stroke-width:4.99999;stroke-dasharray:none"
       d="m 69.155404,119.4169 c 2.869451,3.69392 0.762603,7.97679 1.56142,11.97088 0.04812,0.24058 0.410747,0.30102 0.520472,0.52047 0.455293,0.91058 0,5.57025 0,6.76614"
       id="path19" /><path
       style="fill:none;stroke:#000000;stroke-width:4.99999;stroke-dasharray:none"
       d="m 55.623115,114.21218 c -0.78232,6.36302 -0.520472,12.83815 -0.520472,19.25749"
       id="path20" /><ellipse
       style="fill:none;stroke:#000000;stroke-width:2.199;stroke-dasharray:none"
       id="path21"
       cx="149.92625"
       cy="24.268"
       rx="2.0850496"
       ry="2.2151675" /></g></svg>
